<?xml version="1.0" encoding="UTF-8" standalone="no"?>
<svg
   version="1.1"
   id="svg45"
   sodipodi:docname="Grayscale Transparent_dark.svg"
   inkscape:version="1.2.1 (9c6d41e, 2022-07-14)"
   xmlns:inkscape="http://www.inkscape.org/namespaces/inkscape"
   xmlns:sodipodi="http://sodipodi.sourceforge.net/DTD/sodipodi-0.dtd"
   xmlns="http://www.w3.org/2000/svg"
   xmlns:svg="http://www.w3.org/2000/svg">
  <defs
     id="defs49">
    <filter
       style="color-interpolation-filters:sRGB;"
       inkscape:label="Greyscale"
       id="filter363"
       x="0"
       y="0"
       width="1"
       height="1">
      <feColorMatrix
         values="0.21 0.72 0.072 -0.2 0 0.21 0.72 0.072 -0.2 0 0.21 0.72 0.072 -0.2 0 0 0 0 1 0 "
         id="feColorMatrix361"
         result="fbSourceGraphic" />
      <feColorMatrix
         result="fbSourceGraphicAlpha"
         in="fbSourceGraphic"
         values="0 0 0 -1 0 0 0 0 -1 0 0 0 0 -1 0 0 0 0 1 0"
         id="feColorMatrix365" />
      <feColorMatrix
         id="feColorMatrix367"
         values="0.21 0.72 0.072 -0.2 0 0.21 0.72 0.072 -0.2 0 0.21 0.72 0.072 -0.2 0 0 0 0 1 0 "
         in="fbSourceGraphic" />
    </filter>
  </defs>
  <sodipodi:namedview
     id="namedview47"
     pagecolor="#ffffff"
     bordercolor="#000000"
     borderopacity="0.25"
     inkscape:showpageshadow="2"
     inkscape:pageopacity="0.0"
     inkscape:pagecheckerboard="0"
     inkscape:deskcolor="#d1d1d1"
     showgrid="false"
     inkscape:zoom="3.3653687"
     inkscape:cx="159.4179"
     inkscape:cy="77.554653"
     inkscape:window-width="1309"
     inkscape:window-height="916"
     inkscape:window-x="0"
     inkscape:window-y="38"
     inkscape:window-maximized="0"
     inkscape:current-layer="svg45" />
  <filter
     id="grayscale"
     x="0"
     y="0"
     width="1"
     height="1">
    <feColorMatrix
       type="saturate"
       values="0"
       id="feColorMatrix2" />
  </filter>
  <g
     filter="url(#grayscale)"
     id="g43"
     style="filter:url(#filter363)">
    <svg
       viewBox="-19.061 -34.25 613.1220092773438 643.4999739205881"
       version="1.1"
       id="svg41">
      <svg
         version="1.1"
         id="Layer_1"
         x="50.939"
         y="35.75"
         viewBox="0 0 1052 1119.546142578125"
         xml:space="preserve"
         height="503.4999739205881"
         width="473.12200927734375"
         preserveAspectRatio="xMinYMin"
         enable-background="new 0 0 1051.9 1119.6"
         style="overflow: visible;"><linearGradient
           id="SVGID_1_"
           gradientUnits="userSpaceOnUse"
           x1="226.9522"
           y1="-47.0566"
           x2="815.9377"
           y2="1204.5377"
           style=""><stop
             offset="5.586592e-03"
             style="stop-color: #38FFE2;"
             id="stop5" /><stop
             offset="1"
             style="stop-color: #005CFF;"
             id="stop7" /></linearGradient><path
           class="st0"
           d="M990.4,249.2l-403-232.7C568.4,5.5,547.2,0,525.9,0c-21.2,0-42.4,5.5-61.5,16.5l-403,232.7   C23.4,271.1,0,311.7,0,355.6v261.7v58.2V821c0,43.9,23.4,84.5,61.5,106.4c0,0,201.7,116.5,319.8,184.6c35.4,20.5,79.3-3.1,83-42.7   l0.3-5.5v-20.6V395l61.4-35.4l61.4,35.4v648.2v20.6l0.3,5.5c3.8,39.5,47.6,63.1,83,42.7c118.1-68.2,319.8-184.6,319.8-184.6   c38-22,61.5-62.5,61.5-106.4V675.5v-58.2V355.6C1051.9,311.7,1028.4,271.1,990.4,249.2z M363.4,984.8L112.1,839.7   c-6.7-3.9-10.8-11-10.8-18.8V675.5v-58.2c0-7.7,4.2-14.9,10.8-18.8l251.3-145.1V984.8z M101.2,487.9V355.6   c0-7.7,4.1-14.9,10.8-18.8l403-232.7c3.3-1.9,7-2.9,10.8-2.9c3.8,0,7.5,1,10.8,2.9l403,232.7c6.7,3.9,10.8,11,10.8,18.8v132.3   L525.9,242.7L101.2,487.9z M950.6,821c0,7.7-4.1,14.9-10.8,18.8L688.5,984.8V453.5l251.3,145.1c6.7,3.9,10.8,11.1,10.8,18.8v58.2   V821z"
           style="fill: url(#SVGID_1_);"
           id="path10" /><linearGradient
           id="SVGID_2_"
           gradientUnits="userSpaceOnUse"
           x1="232.2925"
           y1="156.2565"
           x2="232.2925"
           y2="823.2094"
           style=""><stop
             offset="0"
             style="stop-color: #0027C9;"
             id="stop12" /><stop
             offset="1"
             style="stop-color: #0054B6; stop-opacity: 0;"
             id="stop14" /></linearGradient><path
           class="st1"
           d="M61.5,927.4c0,0,201.7,116.5,319.8,184.6c35.4,20.5,79.3-3.1,83-42.7l0.3-5.5v-20.6V395l-101.2,58.4v531.3    L112.1,839.7c-6.7-3.9-10.8-11-10.8-18.8V675.5v-58.2c0-7.7,4.2-14.9,10.8-18.8l-66.7,37.1C17.3,651.8,0,681.6,0,714v107    C0,864.9,23.4,905.5,61.5,927.4z"
           style="fill: url(#SVGID_2_);"
           id="path17" /><linearGradient
           id="SVGID_3_"
           gradientUnits="userSpaceOnUse"
           x1="819.5817"
           y1="156.2565"
           x2="819.5817"
           y2="823.2094"
           style=""><stop
             offset="0"
             style="stop-color: #0027C9;"
             id="stop19" /><stop
             offset="1"
             style="stop-color: #0054B6; stop-opacity: 0;"
             id="stop21" /></linearGradient><path
           class="st2"
           d="M1006.5,635.7l-66.7-37.1c6.7,3.9,10.8,11.1,10.8,18.8v58.2V821c0,7.7-4.1,14.9-10.8,18.8L688.5,984.8V453.5    L587.3,395v648.2v20.6l0.3,5.5c3.8,39.5,47.6,63.1,83,42.7c118.1-68.2,319.8-184.6,319.8-184.6c38-22,61.4-62.5,61.5-106.4V714    C1051.9,681.6,1034.6,651.8,1006.5,635.7z"
           style="fill: url(#SVGID_3_);"
           id="path24" /><linearGradient
           id="SVGID_4_"
           gradientUnits="userSpaceOnUse"
           x1="618.401"
           y1="850.101"
           x2="1032.9082"
           y2="850.101"
           style=""><stop
             offset="0"
             style="stop-color: #0027C9;"
             id="stop26" /><stop
             offset="1"
             style="stop-color: #0054B6; stop-opacity: 0;"
             id="stop28" /></linearGradient><path
           class="st3"
           d="M1051.9,820.9v-107c0-32.3-17.3-62.2-45.4-78.3l-66.7-37.1c6.7,3.9,10.8,11.1,10.8,18.8v58.2v145.4    c0,7.7-4.1,14.9-10.8,18.8L688.5,984.8v116.9c119.4-68.9,301.9-174.3,301.9-174.3C1028.4,905.4,1051.9,864.9,1051.9,820.9z"
           style="fill: url(#SVGID_4_);"
           id="path31" /><linearGradient
           id="SVGID_5_"
           gradientUnits="userSpaceOnUse"
           x1="462.9804"
           y1="896.8125"
           x2="55.3261"
           y2="812.2822"
           style=""><stop
             offset="0"
             style="stop-color: #0027C9;"
             id="stop33" /><stop
             offset="1"
             style="stop-color: #0054B6; stop-opacity: 0;"
             id="stop35" /></linearGradient><path
           class="st4"
           d="M112.1,839.7c-6.7-3.9-10.8-11-10.8-18.8V675.5v-58.2c0-7.7,4.2-14.9,10.8-18.8l-66.7,37.1    C17.3,651.7,0,681.6,0,713.9v107c0,43.9,23.4,84.5,61.5,106.4c0,0,182.5,105.4,301.9,174.3V984.8L112.1,839.7z"
           style="fill: url(#SVGID_5_);"
           id="path38" /></svg>
    </svg>
  </g>
</svg>
