
            <svg xmlns="http://www.w3.org/2000/svg">
                <filter id="grayscale">
                    <feColorMatrix type="saturate" values="0"/>
                </filter>
                <g filter="url(#grayscale)">
                    <svg xmlns="http://www.w3.org/2000/svg" viewBox="-19.061 -34.25 613.1220092773438 643.4999739205881"> <svg xmlns="http://www.w3.org/2000/svg" xmlns:xlink="http://www.w3.org/1999/xlink" version="1.1" id="Layer_1" x="50.939" y="35.75" viewBox="0 0 1052 1119.546142578125" xml:space="preserve" height="503.4999739205881" width="473.12200927734375" preserveAspectRatio="xMinYMin" enable-background="new 0 0 1051.9 1119.6" style="overflow: visible;"><linearGradient id="SVGID_1_" gradientUnits="userSpaceOnUse" x1="226.9522" y1="-47.0566" x2="815.9377" y2="1204.5377" style=""><stop offset="5.586592e-03" style="stop-color: #38FFE2;"></stop><stop offset="1" style="stop-color: #005CFF;"></stop></linearGradient><path class="st0" d="M990.4,249.2l-403-232.7C568.4,5.5,547.2,0,525.9,0c-21.2,0-42.4,5.5-61.5,16.5l-403,232.7   C23.4,271.1,0,311.7,0,355.6v261.7v58.2V821c0,43.9,23.4,84.5,61.5,106.4c0,0,201.7,116.5,319.8,184.6c35.4,20.5,79.3-3.1,83-42.7   l0.3-5.5v-20.6V395l61.4-35.4l61.4,35.4v648.2v20.6l0.3,5.5c3.8,39.5,47.6,63.1,83,42.7c118.1-68.2,319.8-184.6,319.8-184.6   c38-22,61.5-62.5,61.5-106.4V675.5v-58.2V355.6C1051.9,311.7,1028.4,271.1,990.4,249.2z M363.4,984.8L112.1,839.7   c-6.7-3.9-10.8-11-10.8-18.8V675.5v-58.2c0-7.7,4.2-14.9,10.8-18.8l251.3-145.1V984.8z M101.2,487.9V355.6   c0-7.7,4.1-14.9,10.8-18.8l403-232.7c3.3-1.9,7-2.9,10.8-2.9c3.8,0,7.5,1,10.8,2.9l403,232.7c6.7,3.9,10.8,11,10.8,18.8v132.3   L525.9,242.7L101.2,487.9z M950.6,821c0,7.7-4.1,14.9-10.8,18.8L688.5,984.8V453.5l251.3,145.1c6.7,3.9,10.8,11.1,10.8,18.8v58.2   V821z" style="fill: url(#SVGID_1_);"></path><linearGradient id="SVGID_2_" gradientUnits="userSpaceOnUse" x1="232.2925" y1="156.2565" x2="232.2925" y2="823.2094" style=""><stop offset="0" style="stop-color: #0027C9;"></stop><stop offset="1" style="stop-color: #0054B6; stop-opacity: 0;"></stop></linearGradient><path class="st1" d="M61.5,927.4c0,0,201.7,116.5,319.8,184.6c35.4,20.5,79.3-3.1,83-42.7l0.3-5.5v-20.6V395l-101.2,58.4v531.3    L112.1,839.7c-6.7-3.9-10.8-11-10.8-18.8V675.5v-58.2c0-7.7,4.2-14.9,10.8-18.8l-66.7,37.1C17.3,651.8,0,681.6,0,714v107    C0,864.9,23.4,905.5,61.5,927.4z" style="fill: url(#SVGID_2_);"></path><linearGradient id="SVGID_3_" gradientUnits="userSpaceOnUse" x1="819.5817" y1="156.2565" x2="819.5817" y2="823.2094" style=""><stop offset="0" style="stop-color: #0027C9;"></stop><stop offset="1" style="stop-color: #0054B6; stop-opacity: 0;"></stop></linearGradient><path class="st2" d="M1006.5,635.7l-66.7-37.1c6.7,3.9,10.8,11.1,10.8,18.8v58.2V821c0,7.7-4.1,14.9-10.8,18.8L688.5,984.8V453.5    L587.3,395v648.2v20.6l0.3,5.5c3.8,39.5,47.6,63.1,83,42.7c118.1-68.2,319.8-184.6,319.8-184.6c38-22,61.4-62.5,61.5-106.4V714    C1051.9,681.6,1034.6,651.8,1006.5,635.7z" style="fill: url(#SVGID_3_);"></path><linearGradient id="SVGID_4_" gradientUnits="userSpaceOnUse" x1="618.401" y1="850.101" x2="1032.9082" y2="850.101" style=""><stop offset="0" style="stop-color: #0027C9;"></stop><stop offset="1" style="stop-color: #0054B6; stop-opacity: 0;"></stop></linearGradient><path class="st3" d="M1051.9,820.9v-107c0-32.3-17.3-62.2-45.4-78.3l-66.7-37.1c6.7,3.9,10.8,11.1,10.8,18.8v58.2v145.4    c0,7.7-4.1,14.9-10.8,18.8L688.5,984.8v116.9c119.4-68.9,301.9-174.3,301.9-174.3C1028.4,905.4,1051.9,864.9,1051.9,820.9z" style="fill: url(#SVGID_4_);"></path><linearGradient id="SVGID_5_" gradientUnits="userSpaceOnUse" x1="462.9804" y1="896.8125" x2="55.3261" y2="812.2822" style=""><stop offset="0" style="stop-color: #0027C9;"></stop><stop offset="1" style="stop-color: #0054B6; stop-opacity: 0;"></stop></linearGradient><path class="st4" d="M112.1,839.7c-6.7-3.9-10.8-11-10.8-18.8V675.5v-58.2c0-7.7,4.2-14.9,10.8-18.8l-66.7,37.1    C17.3,651.7,0,681.6,0,713.9v107c0,43.9,23.4,84.5,61.5,106.4c0,0,182.5,105.4,301.9,174.3V984.8L112.1,839.7z" style="fill: url(#SVGID_5_);"></path></svg></svg>
                </g>
            </svg>
        